<!--?xml version="1.0" standalone="no"?-->
              <svg id="sw-js-blob-svg" viewBox="0 0 100 100" xmlns="http://www.w3.org/2000/svg" version="1.1">
                    <defs> 
                        <linearGradient id="sw-gradient" x1="0" x2="1" y1="1" y2="0">
                            <stop id="stop1" stop-color="rgba(248, 117, 55, 1)" offset="0%"></stop>
                            <stop id="stop2" stop-color="rgba(185.356, 133.775, 194.352, 1)" offset="100%"></stop>
                        </linearGradient>
                    </defs>
                <path fill="url(#sw-gradient)" d="M9.5,-15.8C11.2,-9.9,10.7,-5.9,15.3,0.2C19.8,6.3,29.3,14.4,30,21.2C30.7,28,22.5,33.6,15.2,32.2C7.9,30.7,1.4,22.2,-7.9,19.7C-17.3,17.2,-29.6,20.7,-35.7,17.2C-41.7,13.7,-41.5,3.2,-39.4,-6.7C-37.4,-16.6,-33.5,-26,-26.6,-31C-19.8,-36,-9.9,-36.7,-3,-33.1C3.9,-29.5,7.8,-21.8,9.5,-15.8Z" width="100%" height="100%" transform="translate(50 50)" stroke-width="0" style="transition: all 0.3s ease 0s;" stroke="url(#sw-gradient)"></path>
              </svg>